<svg id="SvgjsSvg1006" width="350" height="330" xmlns="http://www.w3.org/2000/svg" version="1.1" xmlns:xlink="http://www.w3.org/1999/xlink" xmlns:svgjs="http://svgjs.com/svgjs"><defs id="SvgjsDefs1007"><marker id="SvgjsMarker1046" markerWidth="16" markerHeight="12" refX="16" refY="6" viewBox="0 0 16 12" orient="auto" markerUnits="userSpaceOnUse" stroke-dasharray="0,0"><path id="SvgjsPath1047" d="M0,2 L14,6 L0,11 L0,2" fill="#323232" stroke="#323232" stroke-width="2"></path></marker><marker id="SvgjsMarker1050" markerWidth="16" markerHeight="12" refX="16" refY="6" viewBox="0 0 16 12" orient="auto" markerUnits="userSpaceOnUse" stroke-dasharray="0,0"><path id="SvgjsPath1051" d="M0,2 L14,6 L0,11 L0,2" fill="#323232" stroke="#323232" stroke-width="2"></path></marker><marker id="SvgjsMarker1054" markerWidth="16" markerHeight="12" refX="16" refY="6" viewBox="0 0 16 12" orient="auto" markerUnits="userSpaceOnUse" stroke-dasharray="0,0"><path id="SvgjsPath1055" d="M0,2 L14,6 L0,11 L0,2" fill="#323232" stroke="#323232" stroke-width="2"></path></marker></defs><g id="SvgjsG1008" transform="translate(145,25)"><path id="SvgjsPath1009" d="M 0 30C 0 -10 60 -10 60 30C 60 70 0 70 0 30Z" stroke="rgba(50,50,50,1)" stroke-width="2" fill-opacity="1" fill="#ffffff"></path><g id="SvgjsG1010"><text id="SvgjsText1011" font-family="微软雅黑" text-anchor="middle" font-size="14px" width="40px" fill="#323232" font-weight="400" align="middle" anchor="middle" family="微软雅黑" size="14px" weight="400" font-style="" opacity="1" y="18.9" transform="rotate(0)"><tspan id="SvgjsTspan1012" dy="17" x="30"><tspan id="SvgjsTspan1013" style="text-decoration:;">ul</tspan></tspan></text></g></g><g id="SvgjsG1014" transform="translate(145,145)"><path id="SvgjsPath1015" d="M 0 30C 0 -10 60 -10 60 30C 60 70 0 70 0 30Z" stroke="rgba(50,50,50,1)" stroke-width="2" fill-opacity="1" fill="#ffffff"></path><g id="SvgjsG1016"><text id="SvgjsText1017" font-family="微软雅黑" text-anchor="middle" font-size="14px" width="40px" fill="#323232" font-weight="400" align="middle" anchor="middle" family="微软雅黑" size="14px" weight="400" font-style="" opacity="1" y="18.9" transform="rotate(0)"><tspan id="SvgjsTspan1018" dy="17" x="30"><tspan id="SvgjsTspan1019" style="text-decoration:;">li</tspan></tspan></text></g></g><g id="SvgjsG1020" transform="translate(265,145)"><path id="SvgjsPath1021" d="M 0 30C 0 -10 60 -10 60 30C 60 70 0 70 0 30Z" stroke="rgba(50,50,50,1)" stroke-width="2" fill-opacity="1" fill="#ffffff"></path><g id="SvgjsG1022"><text id="SvgjsText1023" font-family="微软雅黑" text-anchor="middle" font-size="14px" width="40px" fill="#323232" font-weight="400" align="middle" anchor="middle" family="微软雅黑" size="14px" weight="400" font-style="" opacity="1" y="18.9" transform="rotate(0)"><tspan id="SvgjsTspan1024" dy="17" x="30"><tspan id="SvgjsTspan1025" style="text-decoration:;">li</tspan></tspan></text></g></g><g id="SvgjsG1026" transform="translate(25,145)"><path id="SvgjsPath1027" d="M 0 30C 0 -10 60 -10 60 30C 60 70 0 70 0 30Z" stroke="rgba(50,50,50,1)" stroke-width="2" fill-opacity="1" fill="#ffffff"></path><g id="SvgjsG1028"><text id="SvgjsText1029" font-family="微软雅黑" text-anchor="middle" font-size="14px" width="40px" fill="#323232" font-weight="400" align="middle" anchor="middle" family="微软雅黑" size="14px" weight="400" font-style="" opacity="1" y="18.9" transform="rotate(0)"><tspan id="SvgjsTspan1030" dy="17" x="30"><tspan id="SvgjsTspan1031" style="text-decoration:;">li</tspan></tspan></text></g></g><g id="SvgjsG1032"><path id="SvgjsPath1033" d="M175 85L175 115L175 115L175 145" stroke="#323232" stroke-width="2" fill="none"></path></g><g id="SvgjsG1034"><path id="SvgjsPath1035" d="M175 85L295 145" stroke="#323232" stroke-width="2" fill="none"></path></g><g id="SvgjsG1036"><path id="SvgjsPath1037" d="M175 85L55 145" stroke="#323232" stroke-width="2" fill="none"></path></g><g id="SvgjsG1038" transform="translate(115,265)"><path id="SvgjsPath1039" d="M 0 0L 120 0L 120 40L 0 40Z" stroke="none" fill="none"></path><g id="SvgjsG1040"><text id="SvgjsText1041" font-family="微软雅黑" text-anchor="middle" font-size="14px" width="120px" fill="#323232" font-weight="400" align="middle" anchor="middle" family="微软雅黑" size="14px" weight="400" font-style="" opacity="1" y="8.9" transform="rotate(0)"><tspan id="SvgjsTspan1042" dy="17" x="60"><tspan id="SvgjsTspan1043" style="text-decoration:;">绑定事件</tspan></tspan></text></g></g><g id="SvgjsG1044"><path id="SvgjsPath1045" d="M175 265L175 205" stroke="#323232" stroke-width="2" fill="none" marker-end="url(#SvgjsMarker1046)"></path></g><g id="SvgjsG1048"><path id="SvgjsPath1049" d="M175 265L295 205" stroke="#323232" stroke-width="2" fill="none" marker-end="url(#SvgjsMarker1050)"></path></g><g id="SvgjsG1052"><path id="SvgjsPath1053" d="M175 265L55 205" stroke="#323232" stroke-width="2" fill="none" marker-end="url(#SvgjsMarker1054)"></path></g></svg>