<svg id="SvgjsSvg1070" width="440" height="350" xmlns="http://www.w3.org/2000/svg" version="1.1" xmlns:xlink="http://www.w3.org/1999/xlink" xmlns:svgjs="http://svgjs.com/svgjs"><defs id="SvgjsDefs1071"></defs><g id="SvgjsG1072" transform="translate(145,25)"><path id="SvgjsPath1073" d="M 0 30C 0 -10 60 -10 60 30C 60 70 0 70 0 30Z" stroke="rgba(50,50,50,1)" stroke-width="2" fill-opacity="1" fill="#ffffff"></path><g id="SvgjsG1074"><text id="SvgjsText1075" font-family="微软雅黑" text-anchor="middle" font-size="13px" width="40px" fill="#323232" font-weight="700" align="middle" anchor="middle" family="微软雅黑" size="13px" weight="700" font-style="" opacity="1" y="12.05" transform="rotate(0)"><tspan id="SvgjsTspan1076" dy="16" x="30"><tspan id="SvgjsTspan1077" style="text-decoration:;">vuex </tspan></tspan><tspan id="SvgjsTspan1078" dy="16" x="30"><tspan id="SvgjsTspan1079" style="text-decoration:;">模块</tspan></tspan></text></g></g><g id="SvgjsG1080" transform="translate(265,145)"><path id="SvgjsPath1081" d="M 0 30C 0 -10 60 -10 60 30C 60 70 0 70 0 30Z" stroke="rgba(50,50,50,1)" stroke-width="2" fill-opacity="1" fill="#ffffff"></path><g id="SvgjsG1082"><text id="SvgjsText1083" font-family="微软雅黑" text-anchor="middle" font-size="13px" width="40px" fill="#323232" font-weight="700" align="middle" anchor="middle" family="微软雅黑" size="13px" weight="700" font-style="" opacity="1" y="12.05" transform="rotate(0)"><tspan id="SvgjsTspan1084" dy="16" x="30"><tspan id="SvgjsTspan1085" style="text-decoration:;">业务模</tspan></tspan><tspan id="SvgjsTspan1086" dy="16" x="30"><tspan id="SvgjsTspan1087" style="text-decoration:;">块</tspan></tspan></text></g></g><g id="SvgjsG1088" transform="translate(25,145)"><path id="SvgjsPath1089" d="M 0 30C 0 -10 60 -10 60 30C 60 70 0 70 0 30Z" stroke="rgba(50,50,50,1)" stroke-width="2" fill-opacity="1" fill="#ffffff"></path><g id="SvgjsG1090"><text id="SvgjsText1091" font-family="微软雅黑" text-anchor="middle" font-size="13px" width="40px" fill="#323232" font-weight="700" align="middle" anchor="middle" family="微软雅黑" size="13px" weight="700" font-style="" opacity="1" y="12.05" transform="rotate(0)"><tspan id="SvgjsTspan1092" dy="16" x="30"><tspan id="SvgjsTspan1093" style="text-decoration:;">应用模</tspan></tspan><tspan id="SvgjsTspan1094" dy="16" x="30"><tspan id="SvgjsTspan1095" style="text-decoration:;">块</tspan></tspan></text></g></g><g id="SvgjsG1096"><path id="SvgjsPath1097" d="M175 85L295 145" stroke="#323232" stroke-width="2" fill="none"></path></g><g id="SvgjsG1098"><path id="SvgjsPath1099" d="M175 85L55 145" stroke="#323232" stroke-width="2" fill="none"></path></g><g id="SvgjsG1100" transform="translate(25,265)"><path id="SvgjsPath1101" d="M 0 30C 0 -10 60 -10 60 30C 60 70 0 70 0 30Z" stroke="rgba(50,50,50,1)" stroke-width="2" fill-opacity="1" fill="#ffffff"></path><g id="SvgjsG1102"><text id="SvgjsText1103" font-family="微软雅黑" text-anchor="middle" font-size="13px" width="40px" fill="#323232" font-weight="700" align="middle" anchor="middle" family="微软雅黑" size="13px" weight="700" font-style="" opacity="1" y="20.05" transform="rotate(0)"><tspan id="SvgjsTspan1104" dy="16" x="30"><tspan id="SvgjsTspan1105" style="text-decoration:;">app</tspan></tspan></text></g></g><g id="SvgjsG1106"><path id="SvgjsPath1107" d="M55 205L55 235L55 235L55 265" stroke="#323232" stroke-width="2" fill="none"></path></g><g id="SvgjsG1108" transform="translate(265,265)"><path id="SvgjsPath1109" d="M 0 30C 0 -10 60 -10 60 30C 60 70 0 70 0 30Z" stroke="rgba(50,50,50,1)" stroke-width="2" fill-opacity="1" fill="#ffffff"></path><g id="SvgjsG1110"><text id="SvgjsText1111" font-family="微软雅黑" text-anchor="middle" font-size="13px" width="40px" fill="#323232" font-weight="700" align="middle" anchor="middle" family="微软雅黑" size="13px" weight="700" font-style="" opacity="1" y="20.05" transform="rotate(0)"><tspan id="SvgjsTspan1112" dy="16" x="30"><tspan id="SvgjsTspan1113" style="text-decoration:;">config</tspan></tspan></text></g></g><g id="SvgjsG1114" transform="translate(175,265)"><path id="SvgjsPath1115" d="M 0 30C 0 -10 60 -10 60 30C 60 70 0 70 0 30Z" stroke="rgba(50,50,50,1)" stroke-width="2" fill-opacity="1" fill="#ffffff"></path><g id="SvgjsG1116"><text id="SvgjsText1117" font-family="微软雅黑" text-anchor="middle" font-size="13px" width="40px" fill="#323232" font-weight="700" align="middle" anchor="middle" family="微软雅黑" size="13px" weight="700" font-style="" opacity="1" y="20.05" transform="rotate(0)"><tspan id="SvgjsTspan1118" dy="16" x="30"><tspan id="SvgjsTspan1119" style="text-decoration:;">user</tspan></tspan></text></g></g><g id="SvgjsG1120" transform="translate(355,265)"><path id="SvgjsPath1121" d="M 0 30C 0 -10 60 -10 60 30C 60 70 0 70 0 30Z" stroke="rgba(50,50,50,1)" stroke-width="2" fill-opacity="1" fill="#ffffff"></path><g id="SvgjsG1122"><text id="SvgjsText1123" font-family="微软雅黑" text-anchor="middle" font-size="13px" width="40px" fill="#323232" font-weight="700" align="middle" anchor="middle" family="微软雅黑" size="13px" weight="700" font-style="" opacity="1" y="20.05" transform="rotate(0)"><tspan id="SvgjsTspan1124" dy="16" x="30"><tspan id="SvgjsTspan1125" style="text-decoration:;">...</tspan></tspan></text></g></g><g id="SvgjsG1126"><path id="SvgjsPath1127" d="M295 205L295 235L295 235L295 265" stroke="#323232" stroke-width="2" fill="none"></path></g><g id="SvgjsG1128"><path id="SvgjsPath1129" d="M295 205L205 265" stroke="#323232" stroke-width="2" fill="none"></path></g><g id="SvgjsG1130"><path id="SvgjsPath1131" d="M295 205L385 265" stroke="#323232" stroke-width="2" fill="none"></path></g></svg>