<svg id="SvgjsSvg1056" width="350" height="330" xmlns="http://www.w3.org/2000/svg" version="1.1" xmlns:xlink="http://www.w3.org/1999/xlink" xmlns:svgjs="http://svgjs.com/svgjs"><defs id="SvgjsDefs1057"><marker id="SvgjsMarker1096" markerWidth="16" markerHeight="12" refX="16" refY="6" viewBox="0 0 16 12" orient="auto" markerUnits="userSpaceOnUse" stroke-dasharray="0,0"><path id="SvgjsPath1097" d="M0,2 L14,6 L0,11 L0,2" fill="#323232" stroke="#323232" stroke-width="2"></path></marker></defs><g id="SvgjsG1058" transform="translate(145,125)"><path id="SvgjsPath1059" d="M 0 30C 0 -10 60 -10 60 30C 60 70 0 70 0 30Z" stroke="rgba(50,50,50,1)" stroke-width="2" fill-opacity="1" fill="#ffffff"></path><g id="SvgjsG1060"><text id="SvgjsText1061" font-family="微软雅黑" text-anchor="middle" font-size="14px" width="40px" fill="#323232" font-weight="400" align="middle" anchor="middle" family="微软雅黑" size="14px" weight="400" font-style="" opacity="1" y="18.9" transform="rotate(0)"><tspan id="SvgjsTspan1062" dy="17" x="30"><tspan id="SvgjsTspan1063" style="text-decoration:;">ul</tspan></tspan></text></g></g><g id="SvgjsG1064" transform="translate(145,245)"><path id="SvgjsPath1065" d="M 0 30C 0 -10 60 -10 60 30C 60 70 0 70 0 30Z" stroke="rgba(50,50,50,1)" stroke-width="2" fill-opacity="1" fill="#ffffff"></path><g id="SvgjsG1066"><text id="SvgjsText1067" font-family="微软雅黑" text-anchor="middle" font-size="14px" width="40px" fill="#323232" font-weight="400" align="middle" anchor="middle" family="微软雅黑" size="14px" weight="400" font-style="" opacity="1" y="18.9" transform="rotate(0)"><tspan id="SvgjsTspan1068" dy="17" x="30"><tspan id="SvgjsTspan1069" style="text-decoration:;">li</tspan></tspan></text></g></g><g id="SvgjsG1070" transform="translate(265,245)"><path id="SvgjsPath1071" d="M 0 30C 0 -10 60 -10 60 30C 60 70 0 70 0 30Z" stroke="rgba(50,50,50,1)" stroke-width="2" fill-opacity="1" fill="#ffffff"></path><g id="SvgjsG1072"><text id="SvgjsText1073" font-family="微软雅黑" text-anchor="middle" font-size="14px" width="40px" fill="#323232" font-weight="400" align="middle" anchor="middle" family="微软雅黑" size="14px" weight="400" font-style="" opacity="1" y="18.9" transform="rotate(0)"><tspan id="SvgjsTspan1074" dy="17" x="30"><tspan id="SvgjsTspan1075" style="text-decoration:;">li</tspan></tspan></text></g></g><g id="SvgjsG1076" transform="translate(25,245)"><path id="SvgjsPath1077" d="M 0 30C 0 -10 60 -10 60 30C 60 70 0 70 0 30Z" stroke="rgba(50,50,50,1)" stroke-width="2" fill-opacity="1" fill="#ffffff"></path><g id="SvgjsG1078"><text id="SvgjsText1079" font-family="微软雅黑" text-anchor="middle" font-size="14px" width="40px" fill="#323232" font-weight="400" align="middle" anchor="middle" family="微软雅黑" size="14px" weight="400" font-style="" opacity="1" y="18.9" transform="rotate(0)"><tspan id="SvgjsTspan1080" dy="17" x="30"><tspan id="SvgjsTspan1081" style="text-decoration:;">li</tspan></tspan></text></g></g><g id="SvgjsG1082"><path id="SvgjsPath1083" d="M175 185L175 215L175 215L175 245" stroke="#323232" stroke-width="2" fill="none"></path></g><g id="SvgjsG1084"><path id="SvgjsPath1085" d="M175 185L295 245" stroke="#323232" stroke-width="2" fill="none"></path></g><g id="SvgjsG1086"><path id="SvgjsPath1087" d="M175 185L55 245" stroke="#323232" stroke-width="2" fill="none"></path></g><g id="SvgjsG1088" transform="translate(115,25)"><path id="SvgjsPath1089" d="M 0 0L 120 0L 120 40L 0 40Z" stroke="none" fill="none"></path><g id="SvgjsG1090"><text id="SvgjsText1091" font-family="微软雅黑" text-anchor="middle" font-size="14px" width="120px" fill="#323232" font-weight="400" align="middle" anchor="middle" family="微软雅黑" size="14px" weight="400" font-style="" opacity="1" y="8.9" transform="rotate(0)"><tspan id="SvgjsTspan1092" dy="17" x="60"><tspan id="SvgjsTspan1093" style="text-decoration:;">绑定事件</tspan></tspan></text></g></g><g id="SvgjsG1094"><path id="SvgjsPath1095" d="M175 65L175 125" stroke="#323232" stroke-width="2" fill="none" marker-end="url(#SvgjsMarker1096)"></path></g></svg>