<svg id="SvgjsSvg1006" width="440" height="410" xmlns="http://www.w3.org/2000/svg" version="1.1" xmlns:xlink="http://www.w3.org/1999/xlink" xmlns:svgjs="http://svgjs.com/svgjs"><defs id="SvgjsDefs1007"><marker id="SvgjsMarker1026" markerWidth="16" markerHeight="12" refX="16" refY="6" viewBox="0 0 16 12" orient="auto" markerUnits="userSpaceOnUse" stroke-dasharray="0,0"><path id="SvgjsPath1027" d="M0,2 L14,6 L0,11 L0,2" fill="#323232" stroke="#323232" stroke-width="2"></path></marker><marker id="SvgjsMarker1038" markerWidth="16" markerHeight="12" refX="16" refY="6" viewBox="0 0 16 12" orient="auto" markerUnits="userSpaceOnUse" stroke-dasharray="0,0"><path id="SvgjsPath1039" d="M0,2 L14,6 L0,11 L0,2" fill="#323232" stroke="#323232" stroke-width="2"></path></marker><marker id="SvgjsMarker1042" markerWidth="16" markerHeight="12" refX="16" refY="6" viewBox="0 0 16 12" orient="auto" markerUnits="userSpaceOnUse" stroke-dasharray="0,0"><path id="SvgjsPath1043" d="M0,2 L14,6 L0,11 L0,2" fill="#323232" stroke="#323232" stroke-width="2"></path></marker><marker id="SvgjsMarker1046" markerWidth="16" markerHeight="12" refX="16" refY="6" viewBox="0 0 16 12" orient="auto" markerUnits="userSpaceOnUse" stroke-dasharray="0,0"><path id="SvgjsPath1047" d="M0,2 L14,6 L0,11 L0,2" fill="#323232" stroke="#323232" stroke-width="2"></path></marker></defs><g id="SvgjsG1008" transform="translate(55,55)"><path id="SvgjsPath1009" d="M 0 0L 360 0L 360 60L 0 60Z" stroke="rgba(50,50,50,1)" stroke-width="2" fill-opacity="1" fill="#ffffff"></path><g id="SvgjsG1010"><text id="SvgjsText1011" font-family="微软雅黑" text-anchor="middle" font-size="13px" width="340px" fill="#323232" font-weight="400" align="middle" anchor="middle" family="微软雅黑" size="13px" weight="400" font-style="" opacity="1" y="4.05" transform="rotate(0)"><tspan id="SvgjsTspan1012" dy="16" x="180"><tspan id="SvgjsTspan1013" style="text-decoration:;">执行一个宏任务</tspan></tspan><tspan id="SvgjsTspan1014" dy="16" x="180"><tspan id="SvgjsTspan1015" style="text-decoration:;">没有的话获取任务队列里最先进入的执行</tspan></tspan><tspan id="SvgjsTspan1016" dy="16" x="180"><tspan id="SvgjsTspan1017" style="text-decoration:;">宏任务包含的任务添加到对应队列，同步代码立刻执行</tspan></tspan></text></g></g><g id="SvgjsG1018" transform="translate(175,175)"><path id="SvgjsPath1019" d="M 0 30L 60 0L 120 30L 60 60Z" stroke="rgba(50,50,50,1)" stroke-width="2" fill-opacity="1" fill="#ffffff"></path><g id="SvgjsG1020"><text id="SvgjsText1021" font-family="微软雅黑" text-anchor="middle" font-size="13px" width="100px" fill="#323232" font-weight="400" align="middle" anchor="middle" family="微软雅黑" size="13px" weight="400" font-style="" opacity="1" y="20.35" transform="rotate(0)"><tspan id="SvgjsTspan1022" dy="16" x="60"><tspan id="SvgjsTspan1023" style="text-decoration:;">有微任务吗？</tspan></tspan></text></g></g><g id="SvgjsG1024"><path id="SvgjsPath1025" d="M235 115L235 145L235 145L235 175" stroke="#323232" stroke-width="2" fill="none" marker-end="url(#SvgjsMarker1026)"></path></g><g id="SvgjsG1028" transform="translate(55,295)"><path id="SvgjsPath1029" d="M 0 0L 360 0L 360 60L 0 60Z" stroke="rgba(50,50,50,1)" stroke-width="2" fill-opacity="1" fill="#ffffff"></path><g id="SvgjsG1030"><text id="SvgjsText1031" font-family="微软雅黑" text-anchor="middle" font-size="13px" width="340px" fill="#323232" font-weight="400" align="middle" anchor="middle" family="微软雅黑" size="13px" weight="400" font-style="" opacity="1" y="12.05" transform="rotate(0)"><tspan id="SvgjsTspan1032" dy="16" x="180"><tspan id="SvgjsTspan1033" style="text-decoration:;">执行所有微任务</tspan></tspan><tspan id="SvgjsTspan1034" dy="16" x="180"><tspan id="SvgjsTspan1035" style="text-decoration:;">微任务包含的任务添加到对应队列，同步代码立刻执行</tspan></tspan></text></g></g><g id="SvgjsG1036"><path id="SvgjsPath1037" d="M235 235L235 265L235 265L235 295" stroke="#323232" stroke-width="2" fill="none" marker-end="url(#SvgjsMarker1038)"></path></g><g id="SvgjsG1040"><path id="SvgjsPath1041" d="M235 355L235 385L25 385L25 25L235 25L235 55" stroke="#323232" stroke-width="2" fill="none" marker-end="url(#SvgjsMarker1042)"></path></g><g id="SvgjsG1044"><path id="SvgjsPath1045" d="M175 205L25 205L25 25L235 25L235 55" stroke="#323232" stroke-width="2" fill="none" marker-end="url(#SvgjsMarker1046)"></path></g><g id="SvgjsG1048" transform="translate(185,235)"><path id="SvgjsPath1049" d="M 0 0L 120 0L 120 40L 0 40Z" stroke="none" fill="none"></path><g id="SvgjsG1050"><text id="SvgjsText1051" font-family="微软雅黑" text-anchor="middle" font-size="13px" width="120px" fill="#323232" font-weight="400" align="middle" anchor="middle" family="微软雅黑" size="13px" weight="400" font-style="" opacity="1" y="10.05" transform="rotate(0)"><tspan id="SvgjsTspan1052" dy="16" x="60"><tspan id="SvgjsTspan1053" style="text-decoration:;">Y</tspan></tspan></text></g></g><g id="SvgjsG1054" transform="translate(90,195)"><path id="SvgjsPath1055" d="M 0 0L 120 0L 120 40L 0 40Z" stroke="none" fill="none"></path><g id="SvgjsG1056"><text id="SvgjsText1057" font-family="微软雅黑" text-anchor="middle" font-size="13px" width="120px" fill="#323232" font-weight="400" align="middle" anchor="middle" family="微软雅黑" size="13px" weight="400" font-style="" opacity="1" y="10.05" transform="rotate(0)"><tspan id="SvgjsTspan1058" dy="16" x="60"><tspan id="SvgjsTspan1059" style="text-decoration:;">N</tspan></tspan></text></g></g></svg>